<mxfile host="65bd71144e">
    <diagram id="iu8UTEItTF_XXB0HUZB4" name="Page-1">
        <mxGraphModel dx="1685" dy="467" grid="1" gridSize="10" guides="1" tooltips="1" connect="1" arrows="1" fold="1" page="1" pageScale="1" pageWidth="850" pageHeight="1100" math="0" shadow="0">
            <root>
                <mxCell id="0"/>
                <mxCell id="1" parent="0"/>
                <mxCell id="78" value="Redireccionador" style="shape=umlFrame;tabWidth=110;tabHeight=30;tabPosition=left;html=1;boundedLbl=1;labelInHeader=1;width=116;height=29;movable=1;resizable=1;rotatable=1;deletable=1;editable=1;connectable=1;" parent="1" vertex="1">
                    <mxGeometry x="-90" y="105" width="850" height="95" as="geometry"/>
                </mxCell>
                <mxCell id="79" value="[IF seleccion_menu = 4]" style="text" parent="78" vertex="1">
                    <mxGeometry width="100" height="20" relative="1" as="geometry">
                        <mxPoint x="1" y="33" as="offset"/>
                    </mxGeometry>
                </mxCell>
                <mxCell id="132" value="End" style="shape=umlFrame;tabWidth=110;tabHeight=30;tabPosition=left;html=1;boundedLbl=1;labelInHeader=1;width=60;height=40;movable=1;resizable=1;rotatable=1;deletable=1;editable=1;connectable=1;" parent="78" vertex="1">
                    <mxGeometry x="138" y="3.97" width="650" height="76.03" as="geometry"/>
                </mxCell>
                <mxCell id="2" value="Actor" style="shape=umlActor;verticalLabelPosition=bottom;verticalAlign=top;html=1;" parent="1" vertex="1">
                    <mxGeometry x="101" y="20" width="30" height="60" as="geometry"/>
                </mxCell>
                <mxCell id="7" value="Tienda&amp;nbsp;" style="shape=umlLifeline;perimeter=lifelinePerimeter;whiteSpace=wrap;html=1;container=1;collapsible=0;recursiveResize=0;outlineConnect=0;size=50;" parent="1" vertex="1">
                    <mxGeometry x="188" y="49" width="104" height="131" as="geometry"/>
                </mxCell>
                <mxCell id="8" value="Carrito" style="shape=umlLifeline;perimeter=lifelinePerimeter;whiteSpace=wrap;html=1;container=1;collapsible=0;recursiveResize=0;outlineConnect=0;size=50;" parent="1" vertex="1">
                    <mxGeometry x="600" y="50" width="100" height="140" as="geometry"/>
                </mxCell>
                <mxCell id="9" value="Catalogo" style="shape=umlLifeline;perimeter=lifelinePerimeter;whiteSpace=wrap;html=1;container=1;collapsible=0;recursiveResize=0;outlineConnect=0;size=50;" parent="1" vertex="1">
                    <mxGeometry x="325" y="50" width="100" height="140" as="geometry"/>
                </mxCell>
                <mxCell id="10" value="ArtÃ­culos" style="shape=umlLifeline;perimeter=lifelinePerimeter;whiteSpace=wrap;html=1;container=1;collapsible=0;recursiveResize=0;outlineConnect=0;size=50;" parent="1" vertex="1">
                    <mxGeometry x="460" y="50" width="100" height="140" as="geometry"/>
                </mxCell>
                <mxCell id="11" value="" style="shape=umlLifeline;perimeter=lifelinePerimeter;whiteSpace=wrap;html=1;container=0;collapsible=0;recursiveResize=0;outlineConnect=0;size=0;" parent="1" vertex="1">
                    <mxGeometry x="-254" y="100" width="740" height="90" as="geometry"/>
                </mxCell>
            </root>
        </mxGraphModel>
    </diagram>
</mxfile>